<?xml version="1.0" encoding="UTF-8" standalone="no"?>
<!DOCTYPE svg PUBLIC "-//W3C//DTD SVG 1.1//EN" "http://www.w3.org/Graphics/SVG/1.1/DTD/svg11.dtd">
<svg xmlns="http://www.w3.org/2000/svg" xmlns:xl="http://www.w3.org/1999/xlink" version="1.1" viewBox="0 0 720 909" width="60pc" height="909pt" xmlns:dc="http://purl.org/dc/elements/1.1/"><metadata> Produced by OmniGraffle 6.6.1 <dc:date>2017-01-18 06:01:54 +0000</dc:date></metadata><defs/><g stroke="none" stroke-opacity="1" stroke-dasharray="none" fill="none" fill-opacity="1"><title>Canvas 1</title><rect fill="white" width="1022" height="909"/><g><title>Layer 1</title><path d="M 502.1907 127.80929 C 600.60326 226.22134 600.60326 385.77866 502.1907 484.1907 C 403.77866 582.60326 244.22134 582.60326 145.80929 484.1907 C 47.396736 385.77866 47.396736 226.22134 145.80929 127.80929 C 244.22134 29.396736 403.77866 29.396736 502.1907 127.80929" fill="#105334"/><path d="M 324 513 L 94.897403 283.8974 C 221.42727 157.36753 426.57273 157.36753 553.1026 283.8974 Z" fill="white"/><path d="M 324 513 L 120.35325 309.35325 C 232.82424 196.88225 415.17576 196.88225 527.64675 309.35325 Z" fill="#105334"/><path d="M 324 513 L 145.80909 334.8091 C 244.22121 236.39697 403.77879 236.39697 502.1909 334.8091 Z" fill="white"/><path d="M 324 513 L 171.26494 360.26494 C 255.61818 275.91169 392.38182 275.91169 476.73506 360.26494 Z" fill="#105334"/><path d="M 324 513 L 196.72078 385.72078 C 267.01515 315.4264 380.98485 315.4264 451.27922 385.72078 Z" fill="white"/><path d="M 324 513 L 222.17662 411.17662 C 278.41212 354.94113 369.58788 354.94113 425.82338 411.17662 Z" fill="#105334"/><path d="M 324 513 L 247.63247 436.63247 C 289.80909 394.45584 358.1909 394.45584 400.36753 436.63247 Z" fill="white"/><path d="M 324 513 L 273.08831 462.0883 C 301.20606 433.97056 346.79394 433.97056 374.91169 462.0883 Z" fill="#105334"/><path d="M 324 513 L 94.897403 283.8974 C 221.42727 157.36753 426.57273 157.36753 553.1026 283.8974 Z" stroke="#105334" stroke-linecap="round" stroke-linejoin="round" stroke-width="1"/><path d="M 252 346.5 L 147.07599 174.77026 C 188.57056 148.25228 238.19618 138.38681 286.38234 147.07643 Z" fill="#105334"/><path d="M 396 346.5 L 500.924 174.77026 C 459.42944 148.25228 409.80382 138.38681 361.61766 147.07643 Z" fill="#105334"/><path d="M 324 324 L 256.28001 510.05914 C 300.023 525.9803 347.977 525.9803 391.72 510.05914 Z" fill="#105334"/><path d="M 324 513 L 94.897403 283.8974 C 221.42727 157.36753 426.57273 157.36753 553.1026 283.8974 Z" stroke="#105334" stroke-linecap="round" stroke-linejoin="round" stroke-width="2"/><path d="M 324 99 L 336.26594 127.117385 L 366.79754 130.094235 L 343.8467 150.448585 L 350.45034 180.40576 L 324 164.86806 L 297.54966 180.40576 L 304.1533 150.448585 L 281.20246 130.094235 L 311.73406 127.117385 Z" fill="white"/></g></g></svg>
